<svg width="492" height="492" viewBox="0 0 492 492" fill="none" xmlns="http://www.w3.org/2000/svg">
<path d="M465.167 211.614H280.245V26.691C280.245 18.267 268.806 0.000976562 245.929 0.000976562C223.052 0.000976562 211.613 18.268 211.613 26.691V211.615H26.69C18.267 211.614 0 223.053 0 245.929C0 268.805 18.267 280.245 26.69 280.245H211.614V465.169C211.614 473.591 223.052 491.859 245.93 491.859C268.808 491.859 280.246 473.591 280.246 465.169V280.245H465.17C473.592 280.245 491.86 268.807 491.86 245.929C491.86 223.051 473.59 211.614 465.167 211.614Z" fill="black"/>
</svg>
